<?xml version="1.0" encoding="UTF-8"?>
<svg version="1.1" xmlns="http://www.w3.org/2000/svg" width="913" height="1079">
<path d="M0 0 C144.519375 -0.020625 289.03875 -0.04125 437.9375 -0.0625 C506.52388306 -0.07615601 506.52388306 -0.07615601 576.49584961 -0.09008789 C632.09680176 -0.09460449 632.09680176 -0.09460449 658.08082581 -0.09544373 C677.53236806 -0.09644162 696.98390686 -0.10076564 716.43544815 -0.10667343 C736.24487506 -0.11260901 756.05429978 -0.11484067 775.86372754 -0.11344495 C787.65976323 -0.11272435 799.45579079 -0.11474657 811.25182498 -0.1208076 C819.02365622 -0.12453205 826.79548201 -0.12468813 834.56731361 -0.12183534 C839.00468194 -0.1203115 843.44203462 -0.12043502 847.87940133 -0.12488258 C851.9146078 -0.12889568 855.9497863 -0.12840257 859.98499229 -0.12413984 C861.44461411 -0.12341898 862.90423793 -0.12441569 864.36385721 -0.12723528 C866.32885646 -0.13079423 868.29386452 -0.12770918 870.25886387 -0.1241985 C871.89829822 -0.12443247 871.89829822 -0.12443247 873.57085245 -0.12467116 C876 -0 876 -0 877 1 C877.09862661 3.2817171 877.12447067 5.56656956 877.1241985 7.8504172 C877.12547658 8.58014954 877.12675467 9.30988189 877.12807148 10.06172734 C877.13116994 12.54306272 877.12704966 15.0243362 877.12304783 17.50566959 C877.12378653 19.29582925 877.12496411 21.08598878 877.12654433 22.8761479 C877.12963462 27.84193733 877.12642074 32.80770654 877.12226619 37.77349448 C877.11884998 43.15822595 877.12119934 48.54295524 877.12284368 53.92768711 C877.12492372 63.38046462 877.12326295 72.83323586 877.11920547 82.28601265 C877.11318877 96.3421108 877.11286796 110.39820496 877.11374746 124.45430416 C877.11506371 148.09495504 877.11171835 171.73560306 877.10573006 195.37625313 C877.09981201 218.79543636 877.09595585 242.21461844 877.09487724 265.63380241 C877.09484283 266.36052243 877.09480842 267.08724245 877.09477296 267.83598428 C877.09445977 274.47323808 877.09417208 281.11049188 877.09391499 287.74774568 C877.09327551 304.24883506 877.09231614 320.74992441 877.09113979 337.25101376 C877.09108648 338.00252162 877.09103316 338.75402949 877.09097823 339.52831032 C877.08835532 376.10440458 877.08204719 412.68049808 877.07543945 449.2565918 C877.07314784 461.95279947 877.0708725 474.64900715 877.06866455 487.34521484 C877.06845913 488.52630964 877.06845913 488.52630964 877.06824955 489.73126493 C877.06190805 526.32031793 877.05818071 562.90937105 877.05512976 599.49842445 C877.05493169 601.87317215 877.0547325 604.24791985 877.05453308 606.62266756 C877.05321332 622.35995445 877.05193867 638.09724135 877.05069422 653.83452826 C877.04821757 685.14909004 877.04547588 716.46365181 877.04255217 747.77821356 C877.04241293 749.26956863 877.04227388 750.76092371 877.04213501 752.25227878 C877.03442736 835.0068639 877.02189263 917.7614482 877 1050 C831.27347687 1050.15956824 785.54692017 1050.30364128 739.82030204 1050.4332476 C734.10033458 1050.44947044 728.3803674 1050.46579279 722.66040039 1050.48217773 C721.52421805 1050.48543066 720.38803572 1050.48868358 719.21742361 1050.49203508 C703.11798849 1050.53833843 687.01859023 1050.5911265 670.91918945 1050.64819336 C447.27607209 1051.41842961 223.64802057 1050.48938298 0 1050 C0 703.5 0 357 0 0 Z M380 3 C380.49763393 9.12726902 381.132551 15.22497038 381.90234375 21.32421875 C383.9470905 37.63618031 385.46181476 53.88841341 386.25 70.3125 C386.31125565 71.56636002 386.31125565 71.56636002 386.37374878 72.84555054 C390.92098558 168.08392062 363.63338024 258.2026867 276 402 C275.40445313 402.85964355 274.80890625 403.71928711 274.1953125 404.60498047 C263.12922436 420.55476525 251.76637008 436.27850162 240.23266602 451.89257812 C234.63530164 459.47685545 229.11580791 467.1160303 223.60888672 474.76611328 C221.45146796 477.76161885 219.28999375 480.75418406 217.12792969 483.74633789 C216.04065151 485.25153659 214.95406526 486.75723533 213.86816406 488.26342773 C211.21052086 491.94853904 208.54416839 495.62653611 205.85546875 499.2890625 C197.47314321 510.74071645 189.58455661 522.49012827 181.76855469 534.33398438 C180.29063777 536.56187681 178.7984297 538.77775208 177.2890625 540.984375 C121.18832964 623.14369852 89.56159563 716.75733256 107.52734375 816.53515625 C117.45301517 868.56607613 141.15115022 917.56114725 176.90625 956.68359375 C178.70034983 958.66848405 180.41401581 960.69420011 182.125 962.75 C191.78066068 973.78822641 203.25061399 983.28520318 215 992 C215.65194336 992.48710449 216.30388672 992.97420898 216.97558594 993.47607422 C253.36991593 1020.48979603 297.15887431 1037.84533569 342 1044 C342.30292969 1042.91203125 342.60585938 1041.8240625 342.91796875 1040.703125 C350.82689539 1012.74078905 365.83109652 992.54020103 384.6484375 970.9609375 C392.65866019 961.71837285 399.90229409 951.95564122 407 942 C407.46293457 941.35305176 407.92586914 940.70610352 408.40283203 940.03955078 C437.80823275 898.57782434 450.70769439 851.30404534 442.17578125 800.9609375 C435.60389636 765.65373818 420.35892415 732.52113627 405.57250977 700.05297852 C404.98581466 698.76449714 404.3991446 697.47600437 403.8125 696.1875 C403.52414276 695.55447968 403.23578552 694.92145935 402.93869019 694.26925659 C380.22888027 644.32969602 365.50438586 595.14279152 366 540 C333.08908355 589.36637467 336.20791967 656.3747495 347.18249512 711.67034912 C348.93153275 720.38826805 350.75995335 729.08971828 352.58575439 737.79180908 C353.98098891 744.44306206 355.37128009 751.09530211 356.75 757.75 C356.94234222 758.67822571 357.13468445 759.60645142 357.33285522 760.56280518 C362.47411703 785.48779983 365.91052851 810.16819454 366.55224609 835.63598633 C366.60382828 837.63373134 366.66119424 839.63132441 366.71875 841.62890625 C366.74904297 842.80525635 366.77933594 843.98160645 366.81054688 845.19360352 C366.81544893 847.95252661 366.81544893 847.95252661 368 850 C362.36525461 845.71290602 358.31495841 840.56023501 354 835 C353.48759766 834.34612305 352.97519531 833.69224609 352.44726562 833.01855469 C304.87898362 771.91160781 289.30539425 695.42640856 298.54248047 619.52685547 C299.69886367 610.61270836 301.14719803 601.79613055 303 593 C303.19400391 592.07832031 303.38800781 591.15664063 303.58789062 590.20703125 C309.4716705 563.12296518 319.22947071 537.03695291 331 512 C331.51900879 510.88657227 332.03801758 509.77314453 332.57275391 508.62597656 C344.11439461 483.95645233 356.82445768 459.89001829 370.32617188 436.23901367 C375.2915979 427.53631222 380.05849628 418.73176584 384.80859375 409.91015625 C386.88596666 406.05308084 388.98127816 402.2069031 391.09765625 398.37109375 C407.02874461 369.48449259 423.37321645 339.01781358 432 307 C431.87882812 308.02351563 431.75765625 309.04703125 431.6328125 310.1015625 C423.50414931 381.39500883 431.20726872 450.68839709 462 516 C462.68763428 517.4840332 462.68763428 517.4840332 463.38916016 518.99804688 C474.06555123 542.02003128 486.31872438 564.04257801 499.18212891 585.90087891 C504.24227205 594.52745117 509.22378376 603.19994205 514.20361328 611.87304688 C515.36146489 613.88850806 516.52115618 615.90291404 517.68310547 617.91601562 C549.85908831 673.70447251 575.18116039 732.00224437 575.25 797.5 C575.25133942 798.25923767 575.25267883 799.01847534 575.25405884 799.80072021 C575.24664302 819.37080134 573.39861677 838.68907921 569.453125 857.875 C569.0254705 860.82434136 569.18907664 862.22996976 570 865 C603.81124068 815.42126982 623.19705676 762.14535489 623.25 701.625 C623.25100708 700.81897339 623.25201416 700.01294678 623.25305176 699.18249512 C623.23976982 683.30745575 622.07941131 667.74868438 620 652 C619.87141602 650.97712891 619.74283203 649.95425781 619.61035156 648.90039062 C615.98310703 620.75001956 608.59534425 593.01387909 600.09912109 565.97851562 C599.89149643 565.3174884 599.68387177 564.65646118 599.46995544 563.97540283 C598.90954399 562.19994074 598.34258476 560.42654913 597.77514648 558.65332031 C597 556 597 556 597 554 C653.9626587 631.86330388 692.06396635 725.7422889 677.71948242 823.68481445 C676.11399669 833.97897723 673.95225979 844.00970655 671 854 C670.66379639 855.13888672 670.66379639 855.13888672 670.32080078 856.30078125 C662.89497408 880.91029586 651.28126186 904.34069006 636 925 C635.56606934 925.59087402 635.13213867 926.18174805 634.68505859 926.79052734 C604.27446231 967.83739837 560.83248853 994.9654271 514.125 1014.125 C494.08442519 1022.38180903 474.36097315 1033.50479114 459 1049 C548.72243038 1050.75555628 629.52593595 1017.71277945 694.12109375 955.97265625 C744.91953018 906.07931445 773.02896611 834.12054759 774.23217773 763.48779297 C774.53167304 715.37982146 762.36095314 669.26806478 744.25 625 C743.86302444 624.04827911 743.86302444 624.04827911 743.4682312 623.07733154 C729.888181 589.86364952 713.08642944 558.0037323 696.94042969 525.99731445 C666.64907649 465.92915043 666.64907649 465.92915043 656.125 437.6875 C655.86306854 436.9921817 655.60113708 436.2968634 655.33126831 435.58047485 C642.60024745 401.73410232 633.52246408 367.15217389 633.6875 330.8125 C633.68965515 329.95527344 633.6918103 329.09804688 633.69403076 328.21484375 C633.74616759 315.27285473 634.16466207 302.67622778 637 290 C637.19867676 289.09507812 637.39735352 288.19015625 637.60205078 287.2578125 C643.79173761 259.88409635 654.74702656 234.27411876 670.29199219 210.89990234 C671.01950684 209.7989624 671.01950684 209.7989624 671.76171875 208.67578125 C672.19444092 208.03552002 672.62716309 207.39525879 673.07299805 206.7355957 C674.23556134 204.88690691 674.23556134 204.88690691 674 202 C638.13764758 226.63492902 608.50848208 259.18267781 587 297 C586.61811523 297.65838867 586.23623047 298.31677734 585.84277344 298.99511719 C573.4310786 320.39844049 563.35323267 342.72410276 555 366 C554.64454102 366.98790527 554.28908203 367.97581055 553.92285156 368.99365234 C542.20619252 401.93781712 534.45891992 436.23846121 529.0625 470.75 C528.95459137 471.43825867 528.84668274 472.12651733 528.73550415 472.83563232 C527.34929171 481.37639006 527.34929171 481.37639006 527 490 C526.34 490 525.68 490 525 490 C525.01944672 488.68585114 525.03889343 487.37170227 525.05892944 486.01773071 C525.05620463 481.51414527 524.66279563 477.17383529 524.05712891 472.71630859 C523.95593089 471.93706654 523.85473288 471.15782448 523.75046825 470.35496902 C523.41502815 467.78531619 523.07103355 465.2168941 522.7265625 462.6484375 C522.48466974 460.81550384 522.24311564 458.98252546 522.00187683 457.14950562 C521.35354843 452.24091897 520.69627788 447.33357364 520.03570938 442.42662048 C519.6239186 439.36696503 519.21375707 436.30709435 518.80380249 433.24719238 C512.00538596 382.57937706 504.59386553 332.03569587 494 282 C493.81779907 281.13816101 493.63559814 280.27632202 493.44787598 279.3883667 C475.0178522 192.51473306 447.55805705 106.98365926 381 3 C380.67 3 380.34 3 380 3 Z " fill="#FE0000" transform="translate(21,13)"/>
</svg>
